<svg width="666" height="588" viewBox="0 0 666 588" fill="none" xmlns="http://www.w3.org/2000/svg">
<rect x="121" y="514.663" width="517" height="73" fill="url(#paint0_radial_3_586)"/>
<rect y="514.663" width="493" height="73" fill="url(#paint1_radial_3_586)"/>
<g clip-path="url(#clip0_3_586)">
<path d="M150.107 318.461L150.353 317.908C150.353 317.764 150.455 317.641 150.496 317.518L150.68 317.108C152.468 312.422 155.711 308.435 159.931 305.732L161.056 305.076L297.602 226.099L434.147 147.102L435.272 146.466C436.94 145.385 438.865 144.766 440.849 144.673C442.834 144.579 444.807 145.014 446.569 145.934L446.835 146.077L447.101 146.241L465.132 156.654L454.735 161.061L490.795 352.549C491.643 357.727 490.968 363.04 488.851 367.84L488.667 368.25C488.667 368.393 488.564 368.516 488.503 368.639C486.715 373.325 483.473 377.313 479.253 380.015L206.919 537.559L209.416 549.571L192.348 539.671L192.082 539.527C190.252 538.444 188.691 536.959 187.518 535.183C186.344 533.408 185.589 531.389 185.308 529.278L148.47 333.199C147.633 328.23 148.2 323.125 150.107 318.461Z" fill="#DC143C"/>
<path d="M221.635 549.551L496.976 390.285C505.285 385.468 510.34 372.534 508.253 361.424L471.845 168.132C469.798 157.023 461.305 151.898 452.976 156.715L177.634 316.002C169.325 320.819 164.27 333.732 166.357 344.862L202.765 538.072C204.853 549.264 213.305 554.47 221.635 549.551Z" fill="url(#paint2_linear_3_586)"/>
<path d="M178.759 315.346L315.305 236.369L358.098 463.563L222.74 548.915C213.796 554.08 204.976 549.878 203.011 539.527L166.173 343.468C164.147 333.096 169.816 320.532 178.759 315.346Z" fill="url(#paint3_linear_3_586)"/>
<path d="M451.85 157.371L315.305 236.369L357.832 462.231L495.851 391.002C504.794 385.837 510.463 373.251 508.519 362.9L471.681 166.821C469.655 156.387 460.814 152.185 451.85 157.371Z" fill="url(#paint4_linear_3_586)"/>
<path d="M506.779 377.556C504.707 383.095 500.865 387.794 495.851 390.92L222.74 548.915C220.786 550.222 218.515 550.973 216.169 551.089C213.822 551.205 211.489 550.68 209.417 549.571L331.779 323.791L506.779 377.556Z" fill="url(#paint5_linear_3_586)"/>
<path d="M167.831 328.71C169.915 323.177 173.754 318.483 178.759 315.346L451.85 157.371C453.805 156.061 456.079 155.307 458.428 155.187C460.778 155.068 463.116 155.589 465.193 156.695L342.769 382.496L167.831 328.71Z" fill="#FF829B"/>
</g>
<g clip-path="url(#clip1_3_586)">
<path d="M253.28 145.912L253.196 145.724C253.196 145.675 253.161 145.633 253.147 145.591L253.084 145.451C252.473 143.853 251.365 142.494 249.923 141.573L249.539 141.349L202.881 114.425L156.224 87.4943L155.839 87.2777C155.269 86.9091 154.612 86.698 153.934 86.6661C153.256 86.6342 152.581 86.7825 151.979 87.096L151.888 87.1449L151.797 87.2008L145.636 90.7506L149.189 92.253L136.867 157.533C136.577 159.298 136.808 161.11 137.532 162.746L137.594 162.886C137.594 162.935 137.629 162.976 137.65 163.018C138.261 164.616 139.369 165.975 140.811 166.897L233.867 220.605L233.014 224.7L238.846 221.325L238.937 221.276C239.562 220.906 240.096 220.4 240.497 219.795C240.898 219.19 241.156 218.501 241.252 217.782L253.839 150.936C254.125 149.242 253.932 147.502 253.28 145.912Z" fill="#DC143C"/>
<path d="M228.839 224.693L134.755 170.398C131.916 168.755 130.189 164.346 130.902 160.559L143.343 94.6638C144.042 90.8764 146.944 89.1294 149.79 90.7716L243.874 145.074C246.713 146.716 248.44 151.118 247.727 154.913L235.287 220.78C234.573 224.595 231.685 226.37 228.839 224.693Z" fill="url(#paint6_linear_3_586)"/>
<path d="M243.489 144.85L196.832 117.926L182.21 195.379L228.462 224.476C231.517 226.237 234.531 224.804 235.203 221.276L247.79 154.437C248.482 150.902 246.545 146.618 243.489 144.85Z" fill="url(#paint7_linear_3_586)"/>
<path d="M150.175 90.9951L196.832 117.926L182.301 194.925L135.14 170.642C132.084 168.881 130.147 164.591 130.811 161.062L143.399 94.2165C144.091 90.6597 147.112 89.2272 150.175 90.9951Z" fill="url(#paint8_linear_3_586)"/>
<path d="M131.406 166.058C132.114 167.947 133.426 169.548 135.14 170.614L228.461 224.476C229.129 224.922 229.905 225.178 230.707 225.217C231.508 225.257 232.306 225.078 233.014 224.7L191.203 147.729L131.406 166.058Z" fill="url(#paint9_linear_3_586)"/>
<path d="M247.224 149.406C246.512 147.52 245.2 145.919 243.489 144.85L150.175 90.9952C149.507 90.5486 148.73 90.2913 147.927 90.2507C147.124 90.2101 146.325 90.3877 145.615 90.7646L187.448 167.742L247.224 149.406Z" fill="#FF829B"/>
</g>
<g clip-path="url(#clip2_3_586)">
<path d="M269.562 46.8773L269.627 46.7302C269.627 46.692 269.654 46.6593 269.665 46.6266L269.714 46.5176C270.191 45.2715 271.054 44.2112 272.179 43.4926L272.478 43.3182L308.855 22.3175L345.232 1.31133L345.532 1.14237C345.976 0.854853 346.489 0.690257 347.018 0.665363C347.547 0.640468 348.072 0.756168 348.542 1.00066L348.613 1.03881L348.684 1.08242L353.487 3.85126L350.717 5.02312L360.324 55.9415C360.55 57.3184 360.37 58.7312 359.806 60.0075L359.757 60.1166C359.757 60.1547 359.73 60.1874 359.713 60.2201C359.237 61.4662 358.373 62.5266 357.249 63.2451L284.697 105.138L285.362 108.331L280.815 105.699L280.744 105.661C280.256 105.373 279.841 104.978 279.528 104.506C279.215 104.034 279.014 103.497 278.939 102.936L269.125 50.7962C268.902 49.4748 269.053 48.1174 269.562 46.8773Z" fill="#DC143C"/>
<path d="M288.617 108.326L361.97 65.9758C364.184 64.695 365.531 61.2557 364.975 58.3016L355.275 6.90353C354.73 3.94937 352.467 2.58675 350.248 3.86761L276.895 46.2233C274.681 47.5042 273.334 50.938 273.891 53.8976L283.59 105.274C284.146 108.25 286.398 109.634 288.617 108.326Z" fill="url(#paint10_linear_3_586)"/>
<path d="M277.195 46.0489L313.572 25.0482L324.972 85.4613L288.911 108.157C286.529 109.531 284.179 108.413 283.656 105.661L273.842 53.5269C273.302 50.769 274.812 47.4278 277.195 46.0489Z" fill="url(#paint11_linear_3_586)"/>
<path d="M349.948 4.04202L313.572 25.0482L324.901 85.107L361.671 66.1666C364.053 64.7931 365.563 61.4465 365.046 58.694L355.232 6.55469C354.692 3.78039 352.337 2.66304 349.948 4.04202Z" fill="url(#paint12_linear_3_586)"/>
<path d="M364.582 62.5911C364.03 64.0641 363.007 65.3135 361.671 66.1448L288.911 108.157C288.391 108.505 287.786 108.704 287.161 108.735C286.536 108.766 285.914 108.626 285.362 108.332L317.961 48.2945L364.582 62.5911Z" fill="url(#paint13_linear_3_586)"/>
<path d="M274.283 49.6026C274.838 48.1314 275.861 46.883 277.195 46.0489L349.948 4.04204C350.469 3.6937 351.075 3.49301 351.701 3.46134C352.327 3.42967 352.95 3.56819 353.503 3.86217L320.888 63.9047L274.283 49.6026Z" fill="#FF829B"/>
</g>
<defs>
<radialGradient id="paint0_radial_3_586" cx="0" cy="0" r="1" gradientUnits="userSpaceOnUse" gradientTransform="translate(379.5 551.163) rotate(90) scale(36.5 258.5)">
<stop stop-color="#DBDDEB"/>
<stop offset="1" stop-color="white" stop-opacity="0"/>
</radialGradient>
<radialGradient id="paint1_radial_3_586" cx="0" cy="0" r="1" gradientUnits="userSpaceOnUse" gradientTransform="translate(246.5 551.163) rotate(90) scale(36.5 246.5)">
<stop stop-color="#A3A4AE"/>
<stop offset="1" stop-color="white" stop-opacity="0"/>
</radialGradient>
<linearGradient id="paint2_linear_3_586" x1="482.855" y1="271.962" x2="155.955" y2="334.729" gradientUnits="userSpaceOnUse">
<stop stop-color="#7BDAFF"/>
<stop offset="1" stop-color="#59BDEF"/>
</linearGradient>
<linearGradient id="paint3_linear_3_586" x1="148.155" y1="705.762" x2="321.218" y2="357.617" gradientUnits="userSpaceOnUse">
<stop offset="0.77" stop-color="#FF829B"/>
<stop offset="1" stop-color="#DC143C"/>
</linearGradient>
<linearGradient id="paint4_linear_3_586" x1="602.651" y1="382.666" x2="392.733" y2="260.106" gradientUnits="userSpaceOnUse">
<stop offset="0.77" stop-color="#FF829B"/>
<stop offset="1" stop-color="#DC143C"/>
</linearGradient>
<linearGradient id="paint5_linear_3_586" x1="337.99" y1="429.936" x2="267.164" y2="323.317" gradientUnits="userSpaceOnUse">
<stop stop-color="#F2486A"/>
<stop offset="1" stop-color="#DC143C"/>
</linearGradient>
<linearGradient id="paint6_linear_3_586" x1="139.58" y1="130.06" x2="251.263" y2="151.554" gradientUnits="userSpaceOnUse">
<stop stop-color="#7BDAFF"/>
<stop offset="1" stop-color="#59BDEF"/>
</linearGradient>
<linearGradient id="paint7_linear_3_586" x1="253.947" y1="277.947" x2="195.031" y2="159.152" gradientUnits="userSpaceOnUse">
<stop offset="0.77" stop-color="#FF829B"/>
<stop offset="1" stop-color="#DC143C"/>
</linearGradient>
<linearGradient id="paint8_linear_3_586" x1="98.6461" y1="167.8" x2="170.29" y2="125.874" gradientUnits="userSpaceOnUse">
<stop offset="0.77" stop-color="#FF829B"/>
<stop offset="1" stop-color="#DC143C"/>
</linearGradient>
<linearGradient id="paint9_linear_3_586" x1="189.08" y1="183.915" x2="213.204" y2="147.516" gradientUnits="userSpaceOnUse">
<stop stop-color="#F2486A"/>
<stop offset="1" stop-color="#DC143C"/>
</linearGradient>
<linearGradient id="paint10_linear_3_586" x1="358.208" y1="34.5128" x2="271.131" y2="51.2636" gradientUnits="userSpaceOnUse">
<stop stop-color="#7BDAFF"/>
<stop offset="1" stop-color="#59BDEF"/>
</linearGradient>
<linearGradient id="paint11_linear_3_586" x1="269.041" y1="149.864" x2="315.008" y2="57.2203" gradientUnits="userSpaceOnUse">
<stop offset="0.77" stop-color="#FF829B"/>
<stop offset="1" stop-color="#DC143C"/>
</linearGradient>
<linearGradient id="paint12_linear_3_586" x1="390.123" y1="63.9499" x2="334.253" y2="31.2688" gradientUnits="userSpaceOnUse">
<stop offset="0.77" stop-color="#FF829B"/>
<stop offset="1" stop-color="#DC143C"/>
</linearGradient>
<linearGradient id="paint13_linear_3_586" x1="319.615" y1="76.5196" x2="300.796" y2="48.1358" gradientUnits="userSpaceOnUse">
<stop stop-color="#F2486A"/>
<stop offset="1" stop-color="#DC143C"/>
</linearGradient>
<clipPath id="clip0_3_586">
<rect width="518" height="440" fill="white" transform="translate(148 144.663)"/>
</clipPath>
<clipPath id="clip1_3_586">
<rect width="177" height="150" fill="white" transform="matrix(-1 0 0 1 254 86.6627)"/>
</clipPath>
<clipPath id="clip2_3_586">
<rect width="138" height="117" fill="white" transform="translate(269 0.66272)"/>
</clipPath>
</defs>
</svg>
